<svg width="78" height="78" viewBox="0 0 78 78" fill="none" xmlns="http://www.w3.org/2000/svg">
<path d="M26.75 48.3335C26.75 52.8436 30.4063 56.5 34.9165 56.5H42.5C47.3324 56.5 51.25 52.5824 51.25 47.75C51.25 42.9176 47.3324 39 42.5 39H35.5C30.6675 39 26.75 35.0824 26.75 30.25C26.75 25.4175 30.6675 21.5 35.5 21.5H43.0835C47.5936 21.5 51.25 25.1563 51.25 29.6667M39 16.25V21.5M39 56.5V61.75M74 39C74 58.3298 58.3298 74 39 74C19.67 74 4 58.3298 4 39C4 19.67 19.67 4 39 4C58.3298 4 74 19.67 74 39Z" stroke="#2250A9" stroke-width="7" stroke-linecap="round" stroke-linejoin="round"/>
</svg>
