<svg width="60" height="80" viewBox="0 0 60 80" fill="none" xmlns="http://www.w3.org/2000/svg">
<path d="M51.4286 0.0363636L8.57143 0C3.85714 0 0 3.27273 0 7.27273V72.7273C0 76.7273 3.85714 80 8.57143 80H51.4286C56.1429 80 60 76.7273 60 72.7273V7.27273C60 3.27273 56.1429 0.0363636 51.4286 0.0363636ZM51.4286 61.8182H8.57143V18.1818H51.4286V61.8182ZM22.8857 48.3273C24.5571 49.7455 27.2571 49.7455 28.9286 48.3273L44.1 35.4545C45.7714 34.0364 45.7714 31.7455 44.1 30.3273C42.4286 28.9091 39.7286 28.9091 38.0571 30.3273L25.9286 40.6182L22.8857 38.0364C21.2143 36.6182 18.5143 36.6182 16.8429 38.0364C15.1714 39.4545 15.1714 41.7455 16.8429 43.1636L22.8857 48.3273Z" fill="#2250A9"/>
</svg>
