<svg width="70" height="70" viewBox="0 0 70 70" fill="none" xmlns="http://www.w3.org/2000/svg">
<path d="M66.5 35.8556C66.5 14.5056 51.59 0 35 0C18.585 0 3.5 14.1944 3.5 36.0889C1.4 37.4111 0 39.9 0 42.7778V50.5556C0 54.8333 3.15 58.3333 7 58.3333C8.925 58.3333 10.5 56.5833 10.5 54.4444V35.7389C10.5 20.8444 20.825 7.81667 34.23 7.38889C48.09 6.92222 59.5 19.2889 59.5 34.6111V62.2222H35C33.075 62.2222 31.5 63.9722 31.5 66.1111C31.5 68.25 33.075 70 35 70H59.5C63.35 70 66.5 66.5 66.5 62.2222V57.4778C68.565 56.2722 70 53.9 70 51.1V42.1556C70 39.4333 68.565 37.0611 66.5 35.8556Z" fill="#2250A9"/>
<path d="M24.5 42.7778C26.433 42.7778 28 41.0367 28 38.8889C28 36.7411 26.433 35 24.5 35C22.567 35 21 36.7411 21 38.8889C21 41.0367 22.567 42.7778 24.5 42.7778Z" fill="#2250A9"/>
<path d="M45.5 42.7778C47.433 42.7778 49 41.0367 49 38.8889C49 36.7411 47.433 35 45.5 35C43.567 35 42 36.7411 42 38.8889C42 41.0367 43.567 42.7778 45.5 42.7778Z" fill="#2250A9"/>
<path d="M56 31.2278C54.32 20.1444 45.64 11.6667 35.175 11.6667C24.57 11.6667 13.16 21.4278 14.07 36.75C22.715 32.8222 29.225 24.2667 31.08 13.8444C35.665 24.0722 45.08 31.1111 56 31.2278Z" fill="#2250A9"/>
</svg>
