<svg width="78" height="78" viewBox="0 0 78 78" fill="none" xmlns="http://www.w3.org/2000/svg">
<path d="M44.3533 26.2315C42.3499 27.6598 39.8981 28.5 37.25 28.5C30.4845 28.5 25 23.0155 25 16.25C25 9.4845 30.4845 4 37.25 4C41.6355 4 45.4828 6.30447 47.6468 9.76849M18 67.3052H27.136C28.3272 67.3052 29.5111 67.4469 30.6659 67.7301L40.3192 70.0762C42.4136 70.5865 44.5958 70.6358 46.7123 70.2249L57.3856 68.1484C60.2048 67.5992 62.7987 66.2489 64.8311 64.2718L72.3827 56.926C74.5391 54.8319 74.5391 51.4334 72.3827 49.3359C70.4413 47.4469 67.3665 47.2344 65.1699 48.836L56.3692 55.2571C55.1088 56.1783 53.5751 56.6743 51.998 56.6743H43.4993H48.9089C51.9578 56.6743 54.4277 54.2715 54.4277 51.3056V50.2318C54.4277 47.7692 52.7047 45.622 50.2494 45.0266L41.9001 42.9959C40.5414 42.6666 39.1498 42.5 37.7509 42.5C34.3741 42.5 28.2616 45.2958 28.2616 45.2958L18 49.5872M67.0001 19.75C67.0001 26.5155 61.5156 32 54.7501 32C47.9846 32 42.5 26.5155 42.5 19.75C42.5 12.9845 47.9846 7.5 54.7501 7.5C61.5156 7.5 67.0001 12.9845 67.0001 19.75ZM4 48.1V68.4C4 70.3603 4 71.3404 4.38147 72.089C4.71705 72.7477 5.25248 73.2829 5.91104 73.6185C6.65972 74 7.63983 74 9.60001 74H12.4C14.3602 74 15.3403 74 16.089 73.6185C16.7475 73.2829 17.283 72.7477 17.6186 72.089C18 71.3404 18 70.3603 18 68.4V48.1C18 46.1397 18 45.1596 17.6186 44.411C17.283 43.7523 16.7475 43.2172 16.089 42.8815C15.3403 42.5 14.3602 42.5 12.4 42.5H9.60001C7.63983 42.5 6.65972 42.5 5.91104 42.8815C5.25248 43.2172 4.71705 43.7523 4.38147 44.411C4 45.1596 4 46.1397 4 48.1Z" stroke="#2250A9" stroke-width="7" stroke-linecap="round" stroke-linejoin="round"/>
</svg>
