<svg width="34" height="34" viewBox="0 0 34 34" fill="none" xmlns="http://www.w3.org/2000/svg">
<path d="M6.5 19.1051H11M2 11.5398L5 13.4311L6.90596 6.22153C7.29938 4.7334 7.49607 3.98933 7.86093 3.43922C8.18312 2.95343 8.59688 2.57742 9.06426 2.34565C9.59354 2.08318 10.2156 2.08318 11.4596 2.08318H22.5404C23.7845 2.08318 24.4064 2.08318 24.9358 2.34565C25.4032 2.57742 25.8168 2.95343 26.139 3.43922C26.5038 3.98933 26.7007 4.7334 27.0941 6.22153L29 13.4311L32 11.5398M23 19.1051H27.5M9.2 13.4311H24.8C27.3203 13.4311 28.5803 13.4311 29.543 14.0496C30.3897 14.5935 31.0781 15.4615 31.5095 16.5291C32 17.743 32 19.3317 32 22.5095V27.6161C32 28.495 32 28.9343 31.9424 29.2997C31.7057 30.8003 30.7754 31.9733 29.5853 32.2718C29.2955 32.3444 28.9471 32.3444 28.25 32.3444H27.5C25.8431 32.3444 24.5 30.6509 24.5 28.5617C24.5 28.0396 24.1642 27.6161 23.75 27.6161H10.25C9.83579 27.6161 9.5 28.0396 9.5 28.5617C9.5 30.6509 8.15686 32.3444 6.5 32.3444H5.75C5.05301 32.3444 4.70453 32.3444 4.41473 32.2718C3.22466 31.9733 2.29436 30.8003 2.05764 29.2997C2 28.9343 2 28.495 2 27.6161V22.5095C2 19.3317 2 17.743 2.49047 16.5291C2.9219 15.4615 3.61031 14.5935 4.45705 14.0496C5.41964 13.4311 6.67976 13.4311 9.2 13.4311Z" stroke="#2205A9" stroke-width="3" stroke-linecap="round" stroke-linejoin="round"/>
</svg>
