<svg width="34" height="35" viewBox="0 0 34 35" fill="none" xmlns="http://www.w3.org/2000/svg">
<path d="M10.25 9.04437H14.375M10.25 15.7691H14.375M10.25 22.4938H14.375M19.625 9.04437H23.75M19.625 15.7691H23.75M19.625 22.4938H23.75M29 32.5809V7.69943C29 5.81634 29 4.87478 28.673 4.15554C28.3854 3.52286 27.9265 3.00849 27.362 2.68614C26.7203 2.31966 25.8801 2.31966 24.2 2.31966H9.8C8.11983 2.31966 7.27976 2.31966 6.63803 2.68614C6.07354 3.00849 5.61459 3.52286 5.32698 4.15554C5 4.87478 5 5.81634 5 7.69943V32.5809M32 32.5809H2" stroke="#2205A9" stroke-width="3" stroke-linecap="round" stroke-linejoin="round"/>
</svg>
