<svg width="34" height="35" viewBox="0 0 34 35" fill="none" xmlns="http://www.w3.org/2000/svg">
<path d="M23 27.5373L26 30.8997L32 24.175M17 22.4938H11C8.20434 22.4938 6.80653 22.4938 5.70391 23.0057C4.23373 23.6883 3.06569 24.9974 2.45672 26.6451C2 27.881 2 29.4475 2 32.5809M22.25 2.80848C24.4488 3.80607 26 6.22219 26 9.04437C26 11.8666 24.4488 14.2828 22.25 15.2802M19.25 9.04437C19.25 12.7583 16.5637 15.7691 13.25 15.7691C9.93629 15.7691 7.25 12.7583 7.25 9.04437C7.25 5.33041 9.93629 2.31966 13.25 2.31966C16.5637 2.31966 19.25 5.33041 19.25 9.04437Z" stroke="#2205A9" stroke-width="3" stroke-linecap="round" stroke-linejoin="round"/>
</svg>
