<svg width="78" height="78" viewBox="0 0 78 78" fill="none" xmlns="http://www.w3.org/2000/svg">
<path d="M74 23.6875H4M4 41.1875H16.4134C18.304 41.1875 19.2494 41.1875 20.1635 41.3914C20.9748 41.5721 21.7664 41.8713 22.5217 42.2839C23.3726 42.7481 24.1592 43.4034 25.7323 44.7146L27.7677 46.4104C29.3408 47.7216 30.1274 48.3769 30.9783 48.8411C31.7336 49.2537 32.525 49.5529 33.3366 49.7336C34.2505 49.9375 35.1959 49.9375 37.0866 49.9375H40.9134C42.8041 49.9375 43.7495 49.9375 44.6634 49.7336C45.475 49.5529 46.2663 49.2537 47.0216 48.8411C47.8725 48.3769 48.6593 47.7216 50.2322 46.4104L52.2678 44.7146C53.8407 43.4034 54.6275 42.7481 55.4783 42.2839C56.2336 41.8713 57.025 41.5721 57.8367 41.3914C58.7505 41.1875 59.6959 41.1875 61.5866 41.1875H74M4 18V60C4 64.9004 4 67.3509 4.76296 69.2225C5.43405 70.8688 6.50492 72.2076 7.82207 73.0462C9.31944 74 11.2796 74 15.2 74H62.8C66.7203 74 68.6807 74 70.178 73.0462C71.4951 72.2076 72.566 70.8688 73.237 69.2225C74 67.3509 74 64.9004 74 60V18C74 13.0996 74 10.6493 73.237 8.77759C72.566 7.13119 71.4951 5.79261 70.178 4.95371C68.6807 4 66.7203 4 62.8 4H15.2C11.2796 4 9.31944 4 7.82207 4.95371C6.50495 5.79257 5.43405 7.13114 4.76296 8.77759C4 10.6493 4 13.0995 4 18Z" stroke="#2250A9" stroke-width="7" stroke-linecap="round" stroke-linejoin="round"/>
</svg>
