<svg width="70" height="70" viewBox="0 0 70 70" fill="none" xmlns="http://www.w3.org/2000/svg">
<path d="M42.0035 34.9952C42.0035 37.5856 40.6037 39.8259 38.504 41.016V66.4995C38.504 68.4248 36.9292 70 35.0044 70C33.0797 70 31.5049 68.4248 31.5049 66.4995V41.016C29.4051 39.7909 28.0053 37.5856 28.0053 34.9952C28.0053 31.1447 31.1549 27.9943 35.0044 27.9943C38.8539 27.9943 42.0035 31.1447 42.0035 34.9952ZM30.63 14.4474C22.686 16.0576 16.2118 22.4285 14.497 30.3746C13.0972 36.8855 14.742 43.0463 18.2765 47.6669C19.5014 49.2422 21.8811 49.3122 23.2809 47.912L23.5259 47.6669C24.7157 46.4768 24.7157 44.6215 23.7358 43.2913C21.3561 40.1409 20.3063 35.9403 21.4261 31.4947C22.651 26.524 26.7455 22.4985 31.7498 21.4134C40.9187 19.3131 49.0026 26.209 49.0026 34.9952C49.0026 38.0406 48.0228 40.841 46.343 43.1163C45.2931 44.5515 45.3281 46.5118 46.588 47.772C48.1278 49.3122 50.6824 49.0671 51.9773 47.2819C54.497 43.8514 56.0018 39.5808 56.0018 34.9952C56.0018 21.9734 44.1383 11.717 30.63 14.4474ZM30.9099 0.235454C15.0569 2.0207 2.14355 14.8675 0.253792 30.7246C-0.971053 41.051 2.31853 50.5723 8.37277 57.6783C9.66761 59.1835 11.9773 59.2885 13.3771 57.8883L13.5521 57.7133C14.777 56.4881 14.8819 54.4929 13.7271 53.1627C8.26778 46.7568 5.57312 37.8656 7.77784 28.4493C10.2275 17.9129 18.9064 9.58173 29.5451 7.55145C47.3579 4.12099 63.0009 17.7729 63.0009 34.9952C63.0009 41.8561 60.4812 48.157 56.3517 53.0577C55.1619 54.4579 55.2669 56.4881 56.5267 57.7833C57.9965 59.2535 60.4112 59.1485 61.741 57.5383C66.8854 51.4475 70 43.6064 70 34.9952C70 14.3074 52.0473 -2.17988 30.9099 0.235454Z" fill="#2250A9"/>
</svg>
