<svg xmlns="http://www.w3.org/2000/svg" width="34" height="29" fill="none"><path stroke="#210AF8" stroke-linecap="round" stroke-linejoin="round" stroke-width="3" d="M20 6.688h3.506c.367 0 .55 0 .723.043.153.038.3.101.433.187.152.096.282.231.54.502l6.095 6.348c.26.27.39.405.482.563.082.14.143.292.18.452.041.18.041.37.041.753v4.433c0 .728 0 1.092-.114 1.379a1.533 1.533 0 0 1-.812.846c-.276.119-.625.119-1.324.119m-7.5 0H20m0 0V7c0-1.75 0-2.625-.327-3.294a3.066 3.066 0 0 0-1.311-1.365C17.72 2 16.88 2 15.2 2H6.8c-1.68 0-2.52 0-3.162.34-.564.3-1.023.778-1.311 1.366C2 4.375 2 5.25 2 7v12.188c0 1.725 1.343 3.125 3 3.125m15 0h-6m-9 0C5 24.9 7.015 27 9.5 27s4.5-2.099 4.5-4.688m-9 0c0-2.588 2.015-4.687 4.5-4.687s4.5 2.099 4.5 4.688m15.75.78C29.75 25.252 28.071 27 26 27c-2.071 0-3.75-1.749-3.75-3.906 0-2.158 1.679-3.907 3.75-3.907 2.071 0 3.75 1.75 3.75 3.907Z"/></svg>