<svg xmlns="http://www.w3.org/2000/svg" width="34" height="30" fill="none"><path stroke="#fff" stroke-linecap="round" stroke-linejoin="round" stroke-width="3" d="M2.532 10.804h28.936M13.954 2l-3.046 8.804L17 27.68l6.092-16.875L20.046 2m-2.11 25.33L31.58 11.556c.231-.268.347-.401.39-.55a.709.709 0 0 0 0-.403c-.043-.15-.159-.283-.39-.55l-6.6-7.63c-.134-.156-.201-.234-.284-.29a.774.774 0 0 0-.24-.108C24.36 2 24.254 2 24.044 2H9.956c-.21 0-.315 0-.412.025a.775.775 0 0 0-.24.109c-.083.055-.15.133-.284.288l-6.6 7.63c-.231.268-.347.402-.39.55a.708.708 0 0 0 0 .403c.043.15.159.283.39.55L16.064 27.33c.321.372.482.558.675.625.168.06.354.06.522 0 .193-.067.354-.253.675-.625Z"/></svg>