<svg width="34" height="34" viewBox="0 0 34 34" fill="none" xmlns="http://www.w3.org/2000/svg">
<path d="M8.00001 29.3564H11.9154C12.426 29.3564 12.9333 29.4179 13.4282 29.5409L17.5654 30.5587C18.463 30.7801 19.3982 30.8017 20.3053 30.6232L24.8795 29.7222C26.0878 29.484 27.1994 28.8982 28.0705 28.0402L31.3069 24.8529C32.231 23.9443 32.231 22.4697 31.3069 21.5596C30.4748 20.7401 29.1571 20.6478 28.2157 21.3427L24.4439 24.1288C23.9038 24.5285 23.2465 24.7437 22.5706 24.7437H18.9283H21.2467C22.5533 24.7437 23.6119 23.7012 23.6119 22.4143V21.9485C23.6119 20.8798 22.8734 19.9482 21.8212 19.6898L18.2429 18.8089C17.6606 18.6658 17.0642 18.5935 16.4647 18.5935C15.0175 18.5935 12.3978 19.8066 12.3978 19.8066L8.00001 21.6686M2 21.0234V29.8314C2 30.682 2 31.1072 2.16349 31.4321C2.30731 31.7179 2.53678 31.9501 2.81902 32.0957C3.13988 32.2612 3.55993 32.2612 4.4 32.2612H5.6C6.44008 32.2612 6.86013 32.2612 7.18099 32.0957C7.46323 31.9502 7.6927 31.7179 7.83652 31.4321C8.00001 31.1072 8.00001 30.682 8.00001 29.8314V21.0234C8.00001 20.1729 8.00001 19.7475 7.83652 19.4227C7.6927 19.1371 7.46323 18.9047 7.18099 18.7591C6.86013 18.5935 6.44008 18.5935 5.6 18.5935H4.4C3.55993 18.5935 3.13988 18.5935 2.81902 18.7591C2.53678 18.9047 2.30731 19.1371 2.16349 19.4227C2 19.7475 2 20.1729 2 21.0234ZM24.7871 4.30666C23.8919 2.4101 21.8279 1.40536 19.8206 2.37514C17.8135 3.34493 16.9583 5.64477 17.7988 7.6637C18.3181 8.91147 19.8061 11.3345 20.8672 13.0035C21.2591 13.6202 21.4552 13.9286 21.7415 14.1089C21.9871 14.2636 22.2946 14.347 22.5836 14.3374C22.9207 14.326 23.2427 14.1582 23.8867 13.8227C25.6298 12.9144 28.1152 11.5692 29.1812 10.7515C30.9061 9.4285 31.3334 6.99664 30.0421 5.14797C28.7506 3.29928 26.4991 3.11737 24.7871 4.30666Z" stroke="#2205A9" stroke-width="3" stroke-linecap="round" stroke-linejoin="round"/>
</svg>
