<svg width="34" height="34" viewBox="0 0 34 34" fill="none" xmlns="http://www.w3.org/2000/svg">
<path d="M15.4186 5.19033H9.1566C6.65155 5.19033 5.39903 5.19033 4.44223 5.68209C3.6006 6.11465 2.91634 6.80488 2.48751 7.65382C2 8.61896 2 9.88239 2 12.4092V25.0423C2 27.5691 2 28.8325 2.48751 29.7978C2.91634 30.6466 3.6006 31.3369 4.44223 31.7694C5.39903 32.2612 6.65155 32.2612 9.1566 32.2612H21.6806C24.1857 32.2612 25.4381 32.2612 26.395 31.7694C27.2367 31.3369 27.9209 30.6466 28.3497 29.7978C28.8372 28.8325 28.8372 27.5691 28.8372 25.0423V18.7258M10.9457 23.2376H13.4424C14.1717 23.2376 14.5364 23.2376 14.8796 23.1544C15.1838 23.0807 15.4747 22.9592 15.7416 22.7944C16.0424 22.6084 16.3004 22.3482 16.8161 21.828L31.0737 7.44624C32.3088 6.20034 32.3088 4.18033 31.0737 2.93442C29.8386 1.68853 27.8359 1.68852 26.6008 2.93442L12.3431 17.3162C11.8274 17.8364 11.5695 18.0965 11.3851 18.4C11.2216 18.6692 11.1011 18.9625 11.0281 19.2695C10.9457 19.6157 10.9457 19.9835 10.9457 20.7193V23.2376Z" stroke="#2205A9" stroke-width="3" stroke-linecap="round" stroke-linejoin="round"/>
</svg>
